<svg width="58" height="18" viewBox="0 0 58 18" fill="none" xmlns="http://www.w3.org/2000/svg">
<path d="M7.46484 12.6504L10.4238 1.78125H14.2617L9.4668 16H6.98633L7.46484 12.6504ZM4.7793 1.78125L7.73828 12.6504L8.23633 16H5.72656L0.960938 1.78125H4.7793ZM28.2871 1.78125H33.8828C34.9766 1.78125 35.9271 1.94401 36.7344 2.26953C37.5417 2.59505 38.1634 3.07682 38.5996 3.71484C39.0423 4.35286 39.2637 5.14062 39.2637 6.07812C39.2637 6.89193 39.1367 7.57227 38.8828 8.11914C38.6289 8.66602 38.2741 9.11849 37.8184 9.47656C37.3691 9.82812 36.8451 10.1178 36.2461 10.3457L35.123 10.9805H30.4258L30.4062 8.33398H33.8828C34.319 8.33398 34.6803 8.25586 34.9668 8.09961C35.2533 7.94336 35.4681 7.72201 35.6113 7.43555C35.7611 7.14258 35.8359 6.79427 35.8359 6.39062C35.8359 5.98047 35.7611 5.62891 35.6113 5.33594C35.4616 5.04297 35.2402 4.81836 34.9473 4.66211C34.6608 4.50586 34.306 4.42773 33.8828 4.42773H31.7148V16H28.2871V1.78125ZM36.0703 16L32.9258 9.71094L36.5586 9.69141L39.7422 15.8535V16H36.0703ZM51.3594 4.76953L47.8926 16H44.2109L49.4355 1.78125H51.7695L51.3594 4.76953ZM54.2305 16L50.7539 4.76953L50.3047 1.78125H52.668L57.9219 16H54.2305ZM54.0938 10.6973V13.3438H46.7988V10.6973H54.0938Z" fill="#50CCE8"/>
<path d="M18 2.75072V9.50708C18 9.91997 18.3141 10.2578 18.698 10.2578H20.0939V15.6253C20.0939 16.0082 20.5615 16.1433 20.743 15.813L24.3654 9.13172C24.4277 9.01813 24.4608 8.88884 24.4615 8.757C24.4622 8.62516 24.4305 8.49547 24.3695 8.38109C24.3086 8.26672 24.2205 8.17173 24.1144 8.1058C24.0083 8.03986 23.8878 8.00531 23.7652 8.00567H22.1878L23.9257 3.01347C23.9661 2.90033 23.9802 2.77834 23.9669 2.65802C23.9536 2.5377 23.9132 2.42267 23.8493 2.32289C23.7854 2.22311 23.6998 2.14156 23.6001 2.08531C23.5003 2.02905 23.3893 1.99978 23.2766 2.00001H18.698C18.3141 2.00001 18 2.33783 18 2.75072Z" fill="#50CCE8"/>
</svg>